HIERARCHY
ROOT Hips
{
	OFFSET 0.000000 0.000000 0.000000
	CHANNELS 6 Xposition Yposition Zposition Xrotation Yrotation Zrotation
	JOINT LeftUpLeg_virtual
	{
		OFFSET 0.000000 0.000000 0.000000
		CHANNELS 3 Xrotation Yrotation Zrotation
		JOINT LeftUpLeg
		{
			OFFSET 10.205400 -3.823500 0.155100
			CHANNELS 3 Xrotation Yrotation Zrotation
			JOINT LeftLeg
			{
				OFFSET 0.708757 -12.982077 0.567790
				CHANNELS 3 Xrotation Yrotation Zrotation
				JOINT LeftFoot
				{
					OFFSET -0.708756 -10.717838 -2.184338
					CHANNELS 3 Xrotation Yrotation Zrotation
					JOINT LeftToeBase
					{
						OFFSET 0.108149 -7.191104 7.560241
						CHANNELS 3 Xrotation Yrotation Zrotation
						JOINT LeftToe_End
						{
							OFFSET 0.070230 0.081724 4.490308
							CHANNELS 3 Xrotation Yrotation Zrotation
							End Site
							{
								OFFSET 0 0 0
							}
						}
					}
				}
			}
		}
	}
	JOINT RightUpLeg_virtual
	{
		OFFSET 0.000000 0.000000 0.000000
		CHANNELS 3 Xrotation Yrotation Zrotation
		JOINT RightUpLeg
		{
			OFFSET -10.205400 -3.823500 0.005500
			CHANNELS 3 Xrotation Yrotation Zrotation
			JOINT RightLeg
			{
				OFFSET -0.708756 -12.982134 0.610632
				CHANNELS 3 Xrotation Yrotation Zrotation
				JOINT RightFoot
				{
					OFFSET 0.708754 -10.717769 -1.945823
					CHANNELS 3 Xrotation Yrotation Zrotation
					JOINT RightToeBase
					{
						OFFSET -0.108140 -7.191069 7.372968
						CHANNELS 3 Xrotation Yrotation Zrotation
						JOINT RightToe_End
						{
							OFFSET -0.070227 0.081735 4.479403
							CHANNELS 3 Xrotation Yrotation Zrotation
							End Site
							{
								OFFSET 0 0 0
							}
						}
					}
				}
			}
		}
	}
	JOINT Spine_virtual
	{
		OFFSET 0.000000 0.000000 0.000000
		CHANNELS 3 Xrotation Yrotation Zrotation
		JOINT Spine
		{
			OFFSET 0.000000 6.876099 0.125700
			CHANNELS 3 Xrotation Yrotation Zrotation
			JOINT Spine1
			{
				OFFSET 0.000000 5.730043 0.104720
				CHANNELS 3 Xrotation Yrotation Zrotation
				JOINT Spine1_split
				{
					OFFSET 0.000000 5.730043 0.104720
					CHANNELS 3 Xrotation Yrotation Zrotation
					JOINT Spine2
					{
						OFFSET 0.000000 5.730043 0.104720
						CHANNELS 3 Xrotation Yrotation Zrotation
						JOINT Neck_virtual
						{
							OFFSET 0.000000 0.000000 0.000000
							CHANNELS 3 Xrotation Yrotation Zrotation
							JOINT Neck
							{
								OFFSET 0.000000 10.314075 0.188496
								CHANNELS 3 Xrotation Yrotation Zrotation
								JOINT Head
								{
									OFFSET 0.000000 7.643700 -2.377400
									CHANNELS 3 Xrotation Yrotation Zrotation
									JOINT HeadTop_End
									{
										OFFSET 0.000000 43.788605 -13.619600
										CHANNELS 3 Xrotation Yrotation Zrotation
										End Site
										{
											OFFSET 0 0 0
										}
									}
								}
							}
						}
						JOINT LeftShoulder_virtual
						{
							OFFSET 0.000000 0.000000 0.000000
							CHANNELS 3 Xrotation Yrotation Zrotation
							JOINT LeftShoulder
							{
								OFFSET 2.196100 4.412489 0.087492
								CHANNELS 3 Xrotation Yrotation Zrotation
								JOINT LeftShoulder_split
								{
									OFFSET 2.196100 4.412489 0.087492
									CHANNELS 3 Xrotation Yrotation Zrotation
									JOINT LeftArm
									{
										OFFSET 8.771219 -2.981674 -0.026999
										CHANNELS 3 Xrotation Yrotation Zrotation
										JOINT LeftForeArm
										{
											OFFSET 8.512804 0.000000 -0.000000
											CHANNELS 3 Xrotation Yrotation Zrotation
											JOINT LeftHand
											{
												OFFSET 18.484802 0.000000 -0.000000
												CHANNELS 3 Xrotation Yrotation Zrotation
												End Site
												{
													OFFSET 0 0 0
												}
											}
										}
									}
								}
							}
						}
						JOINT RightShoulder_virtual
						{
							OFFSET 0.000000 0.000000 0.000000
							CHANNELS 3 Xrotation Yrotation Zrotation
							JOINT RightShoulder
							{
								OFFSET -2.196100 4.412496 0.070690
								CHANNELS 3 Xrotation Yrotation Zrotation
								JOINT RightShoulder_split
								{
									OFFSET -2.196100 4.412496 0.070690
									CHANNELS 3 Xrotation Yrotation Zrotation
									JOINT RightArm
									{
										OFFSET -8.771282 -2.981682 -0.094208
										CHANNELS 3 Xrotation Yrotation Zrotation
										JOINT RightForeArm
										{
											OFFSET -8.494598 0.000000 0.000000
											CHANNELS 3 Xrotation Yrotation Zrotation
											JOINT RightHand
											{
												OFFSET -18.483803 0.000000 0.000001
												CHANNELS 3 Xrotation Yrotation Zrotation
												End Site
												{
													OFFSET 0 0 0
												}
											}
										}
									}
								}
							}
						}
					}
				}
			}
		}
	}
}
MOTION
Frames: 5
Frame Time: 0.03333333
-0.925556 33.463573 -1.663916 0.000000 0.000000 0.000000 1.166482 6.511884 5.268264 -8.943790 5.563145 3.574368 16.946353 3.720425 -0.612441 -6.712279 1.345774 -7.049887 -2.513208 0.000010 0.000000 0.000000 0.000000 0.000000 1.166482 6.511884 5.268264 -12.992797 -11.054462 -16.096167 37.489023 1.984438 -1.146352 -25.052813 -10.752792 8.625383 -2.517989 0.000012 -0.000002 0.000000 0.000000 0.000000 1.166482 6.511884 5.268264 8.247471 -0.788811 7.074865 1.991695 -0.360840 1.359546 0.000000 0.000000 0.000000 0.000000 0.000000 0.000000 1.985962 -0.352618 1.364337 1.392022 0.201545 3.879092 -5.265644 -14.205865 -0.762743 0.000000 0.000000 0.000000 1.985962 -0.352618 1.364337 0.629184 -5.254240 -12.915655 0.000000 0.000000 0.000000 5.646120 -4.942452 -42.344553 0.000051 -65.506302 0.000069 0.000000 0.000000 0.000000 1.985962 -0.352618 1.364337 1.638811 18.786253 11.884589 0.000000 0.000000 0.000000 -22.655553 15.906307 61.287588 -179.999909 88.744614 179.999732 0.000000 0.000000 0.000000 
-0.920401 33.460777 -1.632893 0.000000 0.000000 0.000000 1.163711 6.233615 5.256124 -8.707059 5.607641 3.614454 16.947311 3.897293 -0.623821 -6.902076 1.372456 -7.138068 -2.517703 0.000005 0.000002 0.000000 0.000000 0.000000 1.163711 6.233615 5.256124 -12.910205 -10.473771 -15.918137 37.526921 1.693301 -1.136487 -25.030060 -10.810379 8.715247 -2.517987 0.000010 -0.000002 0.000000 0.000000 0.000000 1.163711 6.233615 5.256124 8.196786 -0.976076 7.071230 1.977284 -0.412825 1.344538 0.000000 0.000000 0.000000 0.000000 0.000000 0.000000 1.971130 -0.404077 1.350294 1.471622 0.251579 3.770395 -5.997193 -13.685522 -0.924702 0.000000 0.000000 0.000000 1.971130 -0.404077 1.350294 0.635347 -5.283656 -12.880639 0.000000 0.000000 0.000000 5.726512 -4.951271 -42.398652 -0.000037 -65.564372 -0.000062 0.000000 0.000000 0.000000 1.971130 -0.404077 1.350294 1.688135 19.320713 11.981003 0.000000 0.000000 0.000000 -17.246747 18.683098 60.973140 179.999677 84.868242 -179.999745 0.000000 0.000000 0.000000 
-0.900920 33.455811 -1.603662 0.000000 0.000000 0.000000 1.100719 6.089584 5.254850 -8.467099 5.665020 3.597946 16.960050 3.955597 -0.640327 -7.122805 1.381774 -7.091811 -2.463953 0.000014 -0.000001 0.000000 0.000000 0.000000 1.100719 6.089584 5.254850 -12.658399 -9.886176 -15.765308 37.525083 1.256271 -1.115829 -25.036084 -10.896798 8.907840 -2.517985 0.000011 -0.000002 0.000000 0.000000 0.000000 1.100719 6.089584 5.254850 8.131563 -1.305602 7.079333 1.966686 -0.503289 1.325315 0.000000 0.000000 0.000000 0.000000 0.000000 0.000000 1.959774 -0.493536 1.332820 1.524707 0.316482 3.633386 -6.840196 -13.129488 -1.161057 0.000000 0.000000 0.000000 1.959774 -0.493536 1.332820 0.638519 -5.362375 -12.762699 0.000000 0.000000 0.000000 5.906804 -5.087484 -42.408819 0.000020 -65.558635 -0.000003 0.000000 0.000000 0.000000 1.959774 -0.493536 1.332820 1.812188 19.996183 11.753366 0.000000 0.000000 0.000000 -12.150131 22.247782 60.206041 179.999978 81.797471 179.999991 0.000000 0.000000 0.000000 
-0.874419 33.452236 -1.579475 0.000000 0.000000 0.000000 1.026053 5.971082 5.220853 -8.264288 5.724044 3.615083 17.018967 3.979240 -0.670535 -7.360036 1.391447 -7.044623 -2.383032 0.000018 0.000003 0.000000 0.000000 0.000000 1.026053 5.971082 5.220853 -12.345226 -9.293975 -15.581115 37.437240 0.768468 -1.089555 -24.987149 -10.981375 9.128550 -2.517987 0.000009 -0.000001 0.000000 0.000000 0.000000 1.026053 5.971082 5.220853 8.079928 -1.728694 7.061373 1.960706 -0.619253 1.297408 0.000000 0.000000 0.000000 0.000000 0.000000 0.000000 1.952975 -0.608263 1.307202 1.554707 0.385659 3.484320 -7.572357 -12.570903 -1.431676 0.000000 0.000000 0.000000 1.952975 -0.608263 1.307202 0.638609 -5.466749 -12.525782 0.000000 0.000000 0.000000 6.178435 -5.316454 -42.391002 0.000009 -65.547167 0.000011 0.000000 0.000000 0.000000 1.952975 -0.608263 1.307202 1.973446 20.822764 11.448867 0.000000 0.000000 0.000000 -7.453065 26.678301 58.483010 179.999882 79.886330 -179.999937 0.000000 0.000000 0.000000 
-0.840340 33.451225 -1.562960 0.000000 0.000000 0.000000 0.876338 5.819496 5.172554 -7.984782 5.791399 3.641975 17.115329 4.044942 -0.699431 -7.626738 1.405224 -6.999706 -2.295799 0.000001 -0.000003 0.000000 0.000000 0.000000 0.876338 5.819496 5.172554 -11.952758 -8.700788 -15.392185 37.284640 0.298169 -1.060174 -24.877210 -11.055611 9.353365 -2.517990 0.000010 -0.000002 0.000000 0.000000 0.000000 0.876338 5.819496 5.172554 8.034160 -2.166182 6.996732 1.949549 -0.739108 1.258279 0.000000 0.000000 0.000000 0.000000 0.000000 0.000000 1.941195 -0.727063 1.270348 1.601418 0.445810 3.335897 -8.213461 -12.101376 -1.765314 0.000000 0.000000 0.000000 1.941195 -0.727063 1.270348 0.646574 -5.587139 -12.181926 0.000000 0.000000 0.000000 6.521547 -5.578317 -42.384964 -0.000016 -65.581646 -0.000023 0.000000 0.000000 0.000000 1.941195 -0.727063 1.270348 2.127748 21.749846 11.226056 0.000000 0.000000 0.000000 -2.955913 31.958243 55.283944 179.999896 79.162097 -179.999923 0.000000 0.000000 0.000000 
